<svg width="131" height="35" viewBox="0 0 131 35" fill="none" xmlns="http://www.w3.org/2000/svg">
<path d="M38.816 28V24.892H43.94C44.8547 24.892 45.564 24.612 46.068 24.052C46.5907 23.492 46.852 22.8293 46.852 22.064C46.852 21.5413 46.74 21.0653 46.516 20.636C46.292 20.2067 45.956 19.8707 45.508 19.628C45.0787 19.3667 44.556 19.236 43.94 19.236H38.816V16.156H43.52C44.304 16.156 44.9293 15.96 45.396 15.568C45.8813 15.176 46.124 14.588 46.124 13.804C46.124 13.0013 45.8813 12.404 45.396 12.012C44.9293 11.62 44.304 11.424 43.52 11.424H38.816V8.316H43.968C45.2747 8.316 46.3667 8.55867 47.244 9.044C48.14 9.51067 48.812 10.136 49.26 10.92C49.708 11.6853 49.932 12.5253 49.932 13.44C49.932 14.56 49.5867 15.5307 48.896 16.352C48.224 17.1547 47.2347 17.752 45.928 18.144L46.096 16.912C47.552 17.3227 48.672 18.004 49.456 18.956C50.2587 19.8893 50.66 21.0187 50.66 22.344C50.66 23.3893 50.3987 24.3413 49.876 25.2C49.372 26.04 48.6253 26.7213 47.636 27.244C46.6653 27.748 45.48 28 44.08 28H38.816ZM36.016 28V8.316H39.796V28H36.016ZM59.6441 28.28C58.2814 28.28 57.0494 27.972 55.9481 27.356C54.8654 26.7213 53.9974 25.872 53.3441 24.808C52.7094 23.7253 52.3921 22.5213 52.3921 21.196C52.3921 19.8707 52.7094 18.6853 53.3441 17.64C53.9787 16.576 54.8467 15.736 55.9481 15.12C57.0494 14.4853 58.2721 14.168 59.6161 14.168C60.9974 14.168 62.2294 14.4853 63.3121 15.12C64.4134 15.736 65.2814 16.576 65.9161 17.64C66.5507 18.6853 66.8681 19.8707 66.8681 21.196C66.8681 22.5213 66.5507 23.7253 65.9161 24.808C65.2814 25.872 64.4134 26.7213 63.3121 27.356C62.2294 27.972 61.0067 28.28 59.6441 28.28ZM59.6161 24.864C60.3067 24.864 60.9134 24.7147 61.4361 24.416C61.9774 24.0987 62.3881 23.6693 62.6681 23.128C62.9667 22.568 63.1161 21.9333 63.1161 21.224C63.1161 20.5147 62.9667 19.8893 62.6681 19.348C62.3694 18.8067 61.9587 18.3867 61.4361 18.088C60.9134 17.7707 60.3067 17.612 59.6161 17.612C58.9441 17.612 58.3467 17.7707 57.8241 18.088C57.3014 18.3867 56.8907 18.8067 56.5921 19.348C56.2934 19.8893 56.1441 20.5147 56.1441 21.224C56.1441 21.9333 56.2934 22.568 56.5921 23.128C56.8907 23.6693 57.3014 24.0987 57.8241 24.416C58.3467 24.7147 58.9441 24.864 59.6161 24.864ZM75.5855 28.28C74.2228 28.28 72.9908 27.972 71.8895 27.356C70.8068 26.7213 69.9388 25.872 69.2855 24.808C68.6508 23.7253 68.3335 22.5213 68.3335 21.196C68.3335 19.8707 68.6508 18.6853 69.2855 17.64C69.9201 16.576 70.7881 15.736 71.8895 15.12C72.9908 14.4853 74.2135 14.168 75.5575 14.168C76.9388 14.168 78.1708 14.4853 79.2535 15.12C80.3548 15.736 81.2228 16.576 81.8575 17.64C82.4921 18.6853 82.8095 19.8707 82.8095 21.196C82.8095 22.5213 82.4921 23.7253 81.8575 24.808C81.2228 25.872 80.3548 26.7213 79.2535 27.356C78.1708 27.972 76.9481 28.28 75.5855 28.28ZM75.5575 24.864C76.2481 24.864 76.8548 24.7147 77.3775 24.416C77.9188 24.0987 78.3295 23.6693 78.6095 23.128C78.9081 22.568 79.0575 21.9333 79.0575 21.224C79.0575 20.5147 78.9081 19.8893 78.6095 19.348C78.3108 18.8067 77.9001 18.3867 77.3775 18.088C76.8548 17.7707 76.2481 17.612 75.5575 17.612C74.8855 17.612 74.2881 17.7707 73.7655 18.088C73.2428 18.3867 72.8321 18.8067 72.5335 19.348C72.2348 19.8893 72.0855 20.5147 72.0855 21.224C72.0855 21.9333 72.2348 22.568 72.5335 23.128C72.8321 23.6693 73.2428 24.0987 73.7655 24.416C74.2881 24.7147 74.8855 24.864 75.5575 24.864ZM93.7949 28L88.5589 21.028L93.7669 14.476H97.9949L91.8909 21.868L92.0309 20.076L98.2749 28H93.7949ZM85.1709 28V7.756H88.8389V28H85.1709ZM99.4717 28V14.476H103.168V28H99.4717ZM101.32 12.292C100.722 12.292 100.228 12.096 99.8357 11.704C99.4437 11.2933 99.2477 10.7893 99.2477 10.192C99.2477 9.61333 99.4437 9.11867 99.8357 8.708C100.228 8.29733 100.722 8.092 101.32 8.092C101.936 8.092 102.43 8.29733 102.804 8.708C103.196 9.11867 103.392 9.61333 103.392 10.192C103.392 10.7893 103.196 11.2933 102.804 11.704C102.43 12.096 101.936 12.292 101.32 12.292ZM108.209 28V13.02C108.209 11.9373 108.442 10.9853 108.909 10.164C109.376 9.324 110.038 8.66133 110.897 8.176C111.756 7.69067 112.764 7.448 113.921 7.448C114.798 7.448 115.554 7.59733 116.189 7.896C116.824 8.19467 117.393 8.60533 117.897 9.128L115.573 11.48C115.368 11.2747 115.144 11.116 114.901 11.004C114.658 10.892 114.35 10.836 113.977 10.836C113.305 10.836 112.782 11.0227 112.409 11.396C112.054 11.7507 111.877 12.264 111.877 12.936V28H108.209ZM105.073 17.696V14.476H115.881V17.696H105.073ZM122.075 28.112L116.419 14.476H120.395L124.147 24.892H122.803L126.695 14.476H130.699L124.679 28.112H122.075ZM118.323 33.656L122.439 24.948L124.679 28.112L122.215 33.656H118.323Z" fill="white"/>
<path fill-rule="evenodd" clip-rule="evenodd" d="M0.70092 11.8607C8.04663e-08 13.1412 0 14.6859 0 17.7753V19.8288C0 25.0948 1.60933e-07 27.728 1.58162 29.3639C3.16325 31 5.70883 31 10.8 31H16.2C21.2911 31 23.8368 31 25.4183 29.3639C27 27.728 27 25.0948 27 19.8288V17.7753C27 14.6859 27 13.1412 26.2991 11.8607C25.5982 10.5802 24.3177 9.78544 21.7566 8.19596L19.0566 6.52027C16.3493 4.84009 14.9957 4 13.5 4C12.0043 4 10.6507 4.84009 7.94344 6.52027L5.24344 8.19598C2.68238 9.78544 1.40184 10.5802 0.70092 11.8607ZM10.0529 22.0866C9.6037 21.7536 8.96958 21.8478 8.63659 22.2971C8.30361 22.7464 8.39784 23.3805 8.84708 23.7134C10.1598 24.6865 11.7653 25.2625 13.5 25.2625C15.2348 25.2625 16.8402 24.6865 18.1529 23.7134C18.6022 23.3805 18.6964 22.7464 18.3634 22.2971C18.0305 21.8478 17.3964 21.7536 16.9471 22.0866C15.9638 22.8154 14.777 23.2375 13.5 23.2375C12.223 23.2375 11.0363 22.8154 10.0529 22.0866Z" fill="white"/>
</svg>
